<svg width="300" height="300" viewBox="0 0 300 300" fill="none" xmlns="http://www.w3.org/2000/svg">
<rect width="300" height="300" rx="150" fill="white"/>
<path d="M138.56 230.56C124.736 230.219 106.475 228.683 83.776 225.952V196.512C96.2347 198.731 105.536 200.181 111.68 200.864C120.896 202.4 129.856 203.168 138.56 203.168V160.672H133.696C98.1973 160.672 80.448 146.165 80.448 117.152V108.448C80.448 95.3067 85.056 85.408 94.272 78.752C103.488 71.9253 118.251 67.9147 138.56 66.72V48.288H162.624V66.208C181.056 67.0613 197.013 68.1707 210.496 69.536V96.928C188.309 94.1973 172.352 92.7467 162.624 92.576V130.464H165.952C184.725 130.464 198.208 133.963 206.4 140.96C214.592 147.957 218.688 158.624 218.688 172.96V180.64C218.688 196 213.909 207.605 204.352 215.456C194.795 223.136 180.885 227.829 162.624 229.536V263.84H138.56V230.56ZM138.56 92.832C131.051 93.344 125.845 94.4533 122.944 96.16C120.213 97.8667 118.848 100.768 118.848 104.864V119.2C118.848 126.368 125.419 130.123 138.56 130.464V92.832ZM162.624 201.888C174.229 200.011 180.032 195.659 180.032 188.832V174.496C180.032 170.229 178.752 166.987 176.192 164.768C173.803 162.549 169.28 161.184 162.624 160.672V201.888Z" fill="#FF2E4C"/>
</svg>
