<svg width="22" height="22" viewBox="0 0 22 22" fill="none" xmlns="http://www.w3.org/2000/svg">
<path d="M1 20C0.999916 18.4603 1.44413 16.9533 2.27935 15.6598C3.11456 14.3664 4.30527 13.3414 5.7086 12.708C7.11193 12.0745 8.66824 11.8595 10.1908 12.0886C11.7133 12.3178 13.1373 12.9815 14.292 14" stroke="#001C1C" stroke-width="1.5" stroke-linecap="round" stroke-linejoin="round"/>
<path d="M9 12C11.7614 12 14 9.76142 14 7C14 4.23858 11.7614 2 9 2C6.23858 2 4 4.23858 4 7C4 9.76142 6.23858 12 9 12Z" stroke="#001C1C" stroke-width="1.5" stroke-linecap="round" stroke-linejoin="round"/>
<path d="M18 15V21" stroke="#FF2E4C" stroke-width="1.5" stroke-linecap="round" stroke-linejoin="round"/>
<path d="M21 18H15" stroke="#FF2E4C" stroke-width="1.5" stroke-linecap="round" stroke-linejoin="round"/>
</svg>
